<svg width="34" height="34" viewBox="0 0 34 34" fill="none" xmlns="http://www.w3.org/2000/svg">
<path d="M17.2266 15.3992C17.085 15.385 16.915 15.385 16.7591 15.3992C13.3875 15.2859 10.71 12.5234 10.71 9.12337C10.71 5.65254 13.515 2.83337 17 2.83337C20.4708 2.83337 23.29 5.65254 23.29 9.12337C23.2758 12.5234 20.5983 15.2859 17.2266 15.3992Z" stroke="#5063BF" stroke-width="1.5" stroke-linecap="round" stroke-linejoin="round"/>
<path d="M10.1433 20.6266C6.71494 22.9216 6.71494 26.6616 10.1433 28.9425C14.0391 31.5491 20.4283 31.5491 24.3241 28.9425C27.7524 26.6475 27.7524 22.9075 24.3241 20.6266C20.4424 18.0341 14.0533 18.0341 10.1433 20.6266Z" stroke="#5063BF" stroke-width="1.5" stroke-linecap="round" stroke-linejoin="round"/>
</svg>
