<svg width="30" height="30" viewBox="0 0 30 30" fill="none" xmlns="http://www.w3.org/2000/svg">
<path d="M23.7225 0C26.3625 0 28.5 2.175 28.5 4.8525C28.5 7.53 26.364 9.7035 23.7225 9.7035C23.0463 9.70304 22.378 9.55768 21.7627 9.2772C21.1474 8.99672 20.5994 8.58763 20.1555 8.0775L10.7295 13.2375C10.9395 13.7835 11.0535 14.3775 11.0535 15C11.0535 15.813 10.8585 16.578 10.509 17.2515L19.521 22.839C19.9246 22.0737 20.5289 21.4328 21.269 20.9849C22.0092 20.537 22.8574 20.299 23.7225 20.2965C26.3625 20.2965 28.5 22.4715 28.5 25.1475C28.5 27.825 26.364 30 23.7225 30C21.0825 30 18.9465 27.825 18.9465 25.1475L18.951 24.9405L9.156 18.8715C8.33107 19.5083 7.31813 19.8533 6.276 19.8525C3.6375 19.8525 1.5 17.6775 1.5 15C1.5 12.3225 3.636 10.1475 6.2775 10.1475C7.5555 10.1475 8.7165 10.6575 9.573 11.487L19.146 6.2475C19.013 5.79447 18.9458 5.32466 18.9465 4.8525C18.945 2.175 21.0825 0 23.7225 0ZM23.7225 22.389C22.2345 22.389 21.0225 23.622 21.0225 25.149C21.0225 26.6745 22.2345 27.9075 23.7225 27.9075C25.212 27.9075 26.4225 26.6745 26.4225 25.1475C26.4225 23.622 25.212 22.389 23.7225 22.389ZM6.2775 12.2415C4.788 12.2415 3.5775 13.4745 3.5775 15C3.5775 16.5255 4.788 17.76 6.2775 17.76C7.7655 17.76 8.9775 16.5255 8.9775 15C8.9775 13.4745 7.7655 12.24 6.2775 12.24M23.7225 2.091C22.2345 2.091 21.0225 3.324 21.0225 4.851C21.0225 6.3765 22.2345 7.6095 23.7225 7.6095C25.212 7.6095 26.4225 6.3765 26.4225 4.8495C26.4225 3.324 25.212 2.091 23.7225 2.091Z" fill="#5063BF"/>
</svg>
